<svg xmlns="http://www.w3.org/2000/svg" width="375" viewBox="0 0 375 375" height="375" version="1.0"><defs><clipPath id="a"><path d="M 73.972656 15.246094 L 301.222656 15.246094 L 301.222656 265.746094 L 73.972656 265.746094 Z M 73.972656 15.246094"/></clipPath></defs><path fill="#FFF" d="M-37.5 -37.5H412.5V412.5H-37.5z"/><path fill="#FFF" d="M-37.5 -37.5H412.5V412.5H-37.5z"/><path fill="#0D1117" d="M-37.5 -37.5H412.5V412.5H-37.5z"/><g clip-path="url(#a)"><path fill="#8345FF" d="M 144.039062 238.410156 L 144.039062 214.910156 L 165.558594 202.984375 L 186.832031 214.808594 L 186.832031 262.214844 Z M 121.625 224.496094 L 121.625 177.144531 L 164.417969 153.394531 L 164.417969 175.554688 L 142.203125 187.878906 L 142.054688 187.976562 L 141.957031 188.078125 L 141.855469 188.226562 L 141.753906 188.324219 L 141.65625 188.523438 L 141.65625 213.46875 Z M 76.402344 200.75 L 76.402344 153.394531 L 119.144531 177.144531 L 119.144531 224.496094 Z M 119.839844 155.976562 L 120.039062 156.078125 L 120.136719 156.078125 C 120.234375 156.105469 120.332031 156.121094 120.433594 156.125 C 120.535156 156.121094 120.636719 156.105469 120.730469 156.078125 L 120.832031 156.078125 L 121.03125 155.976562 L 146.320312 141.914062 L 163.128906 151.257812 L 120.433594 174.957031 L 77.742188 151.257812 L 94.550781 141.914062 Z M 76.402344 129.046875 L 76.402344 81.640625 L 119.144531 105.394531 L 119.144531 125.417969 L 94.503906 139.082031 Z M 141.558594 67.53125 L 141.558594 91.429688 L 120.386719 103.257812 L 77.691406 79.554688 L 120.386719 55.851562 Z M 144.039062 43.929688 L 186.832031 67.679688 L 186.832031 115.082031 L 166.898438 104.050781 L 166.898438 79.109375 L 166.796875 78.910156 L 166.699219 78.808594 L 166.597656 78.660156 L 166.5 78.5625 L 166.351562 78.460938 L 144.136719 66.136719 L 144.136719 43.976562 Z M 230.761719 41.839844 L 188.070312 65.542969 L 145.375 41.839844 L 188.070312 18.1875 Z M 208.894531 78.460938 L 208.746094 78.5625 L 208.648438 78.660156 L 208.550781 78.808594 L 208.398438 78.910156 L 208.300781 79.109375 L 208.300781 104.597656 L 189.359375 115.132812 L 189.359375 67.726562 L 232.050781 43.976562 L 232.050781 65.59375 Z M 254.761719 55.851562 L 297.453125 79.554688 L 254.761719 103.257812 L 234.582031 92.074219 L 234.582031 67.035156 Z M 298.792969 129.046875 L 277.421875 140.921875 L 256 129.046875 L 256 105.394531 L 298.742188 81.640625 L 298.742188 129.046875 Z M 297.453125 154.882812 L 254.761719 178.585938 L 212.066406 154.882812 L 232.152344 143.753906 L 254.167969 155.976562 L 254.363281 156.078125 L 254.464844 156.078125 C 254.5625 156.105469 254.660156 156.121094 254.761719 156.125 C 254.863281 156.121094 254.960938 156.105469 255.058594 156.078125 L 255.160156 156.078125 L 255.355469 155.976562 L 277.371094 143.753906 Z M 256 228.125 L 256 180.769531 L 298.742188 157.019531 L 298.742188 204.425781 Z M 234.53125 188.96875 L 234.53125 188.523438 L 234.433594 188.324219 L 234.332031 188.226562 L 234.234375 188.078125 L 234.132812 187.976562 L 233.984375 187.878906 L 210.78125 175.007812 L 210.78125 157.019531 L 253.523438 180.769531 L 253.523438 228.175781 L 234.582031 217.640625 L 234.582031 188.96875 Z M 163.027344 201.542969 L 144.039062 212.074219 L 144.039062 191.058594 Z M 232.101562 191.007812 L 232.101562 216.199219 L 210.730469 204.375 L 210.730469 202.882812 Z M 230.761719 188.921875 L 210.730469 200.050781 L 210.730469 177.839844 Z M 188.070312 165.21875 L 208.25 176.398438 L 208.25 201.390625 L 188.070312 212.625 L 166.898438 200.894531 L 166.898438 176.996094 Z M 256 131.878906 L 274.84375 142.3125 L 256 152.746094 Z M 253.523438 152.796875 L 234.679688 142.363281 L 253.523438 131.929688 L 253.523438 152.847656 Z M 232.695312 93.867188 L 253.523438 105.394531 L 253.523438 129.046875 L 232.152344 140.921875 L 210.78125 129.046875 L 210.78125 106.039062 Z M 230.117188 92.425781 L 210.679688 103.207031 L 210.679688 81.640625 Z M 232.050781 68.425781 L 232.050781 90.636719 L 212.019531 79.507812 Z M 164.417969 81.640625 L 164.417969 102.660156 L 145.476562 92.125 Z M 163.078125 79.554688 L 144.039062 90.140625 L 144.039062 68.96875 Z M 121.625 125.417969 L 121.625 105.394531 L 142.898438 93.566406 L 164.417969 105.492188 L 164.417969 128.996094 L 146.320312 139.03125 Z M 119.144531 152.796875 L 97.082031 140.523438 L 119.144531 128.25 Z M 121.625 128.25 L 143.738281 140.523438 L 121.625 152.796875 Z M 166.898438 151.308594 L 166.898438 150.859375 L 166.796875 150.660156 L 166.699219 150.5625 L 166.597656 150.414062 L 166.5 150.3125 L 166.351562 150.210938 L 148.847656 140.523438 L 166.253906 130.882812 C 166.652344 130.664062 166.898438 130.246094 166.898438 129.792969 L 166.898438 106.933594 L 187.476562 118.363281 L 187.671875 118.460938 L 187.769531 118.460938 C 187.867188 118.492188 187.96875 118.507812 188.070312 118.511719 C 188.171875 118.507812 188.269531 118.492188 188.367188 118.460938 L 188.46875 118.460938 L 188.664062 118.363281 L 208.25 107.480469 L 208.25 129.839844 C 208.25 130.296875 208.496094 130.714844 208.894531 130.933594 L 229.574219 142.410156 L 208.894531 153.792969 L 208.746094 153.890625 L 208.648438 153.988281 L 208.550781 154.140625 L 208.449219 154.238281 L 208.347656 154.4375 L 208.347656 173.566406 L 188.761719 162.683594 C 188.394531 162.480469 187.945312 162.480469 187.574219 162.683594 L 166.996094 174.113281 L 166.996094 151.257812 Z M 164.417969 178.386719 L 164.417969 199.554688 L 145.375 188.96875 Z M 232.050781 238.410156 L 189.257812 262.164062 L 189.257812 214.808594 L 208.199219 204.273438 L 208.199219 205.121094 C 208.199219 205.574219 208.445312 205.996094 208.84375 206.214844 L 232.050781 219.082031 L 232.050781 238.460938 Z M 187.769531 265.492188 C 187.867188 265.519531 187.96875 265.539062 188.070312 265.542969 C 188.171875 265.539062 188.269531 265.519531 188.367188 265.492188 L 188.46875 265.492188 L 188.664062 265.394531 L 233.9375 240.25 C 234.335938 240.03125 234.582031 239.613281 234.582031 239.15625 L 234.582031 220.472656 L 254.167969 231.355469 L 254.363281 231.453125 L 254.464844 231.453125 C 254.5625 231.484375 254.660156 231.5 254.761719 231.503906 C 254.863281 231.5 254.960938 231.484375 255.058594 231.453125 L 255.160156 231.453125 L 255.355469 231.355469 L 300.578125 206.214844 C 300.976562 205.996094 301.226562 205.574219 301.222656 205.121094 L 301.222656 154.4375 L 301.125 154.238281 L 301.027344 154.140625 L 300.925781 153.988281 L 300.828125 153.890625 L 300.675781 153.792969 L 279.953125 142.363281 L 300.578125 130.882812 C 300.976562 130.664062 301.226562 130.246094 301.222656 129.792969 L 301.222656 79.109375 L 301.125 78.910156 L 301.027344 78.808594 L 300.925781 78.660156 L 300.828125 78.5625 L 300.675781 78.460938 L 255.355469 53.316406 C 254.988281 53.117188 254.539062 53.117188 254.167969 53.316406 L 234.582031 64.203125 L 234.582031 41.441406 L 234.480469 41.242188 L 234.382812 41.144531 L 234.28125 40.996094 L 234.183594 40.894531 L 234.035156 40.796875 L 188.664062 15.65625 C 188.292969 15.453125 187.84375 15.453125 187.476562 15.65625 L 142.203125 40.796875 L 142.054688 40.894531 L 141.957031 40.996094 L 141.855469 41.144531 L 141.753906 41.242188 L 141.65625 41.441406 L 141.65625 64.746094 L 121.078125 53.316406 C 120.710938 53.117188 120.257812 53.117188 119.890625 53.316406 L 74.617188 78.460938 L 74.46875 78.5625 L 74.371094 78.660156 L 74.269531 78.808594 L 74.171875 78.910156 L 74.070312 79.109375 L 74.070312 129.792969 C 74.070312 130.246094 74.316406 130.664062 74.714844 130.882812 L 91.921875 140.523438 L 74.519531 150.164062 L 74.371094 150.261719 L 74.269531 150.363281 L 74.171875 150.511719 L 74.070312 150.609375 L 73.972656 150.808594 L 73.972656 201.492188 C 73.972656 201.949219 74.21875 202.367188 74.617188 202.585938 L 119.890625 227.726562 L 120.085938 227.828125 L 120.136719 227.828125 C 120.234375 227.855469 120.332031 227.875 120.433594 227.878906 C 120.535156 227.875 120.636719 227.855469 120.730469 227.828125 L 120.832031 227.828125 L 121.03125 227.726562 L 141.609375 216.300781 L 141.609375 239.15625 C 141.605469 239.613281 141.855469 240.03125 142.25 240.25 L 187.523438 265.394531 L 187.722656 265.492188 L 187.820312 265.492188 L 187.769531 265.492188"/></g><g fill="#FFF"><g><g><path d="M 5.714844 0.0664062 L 12.984375 0.0664062 L 12.984375 -34.867188 L 28.242188 -13.375 L 29.800781 -13.375 L 45.253906 -34.867188 L 45.253906 0.0664062 L 52.527344 0.0664062 L 52.527344 -45.449219 L 44.085938 -45.449219 L 29.152344 -24.152344 L 14.152344 -45.449219 L 5.714844 -45.449219 Z M 5.714844 0.0664062" transform="translate(17.213 340.826)"/></g></g></g><g fill="#FFF"><g><g><path d="M 19.867188 0.910156 C 24.800781 0.910156 30.320312 -0.84375 33.632812 -4.546875 L 29.28125 -8.765625 C 27.269531 -6.492188 23.308594 -5.324219 19.996094 -5.324219 C 14.089844 -5.324219 10.128906 -8.441406 9.542969 -13.375 L 35.515625 -13.375 C 35.582031 -14.347656 35.644531 -15.324219 35.644531 -16.230469 C 35.644531 -27.269531 28.957031 -32.722656 19.414062 -32.722656 C 9.414062 -32.722656 2.597656 -25.777344 2.597656 -16.035156 C 2.597656 -5.777344 9.347656 0.910156 19.867188 0.910156 Z M 9.675781 -19.023438 C 10.714844 -24.152344 14.671875 -26.75 19.609375 -26.75 C 25.0625 -26.75 28.632812 -24.152344 29.085938 -19.023438 Z M 9.675781 -19.023438" transform="translate(75.448 340.826)"/></g></g></g><g fill="#FFF"><g><g><path d="M 4.546875 0 L 11.234375 0 L 11.234375 -17.726562 C 11.234375 -22.464844 14.285156 -26.425781 18.957031 -26.425781 C 23.699219 -26.425781 26.425781 -22.464844 26.425781 -17.726562 L 26.425781 0 L 33.179688 0 L 33.179688 -17.726562 C 33.179688 -22.464844 36.230469 -26.359375 40.96875 -26.359375 C 45.644531 -26.359375 48.046875 -22.59375 48.046875 -17.855469 L 48.046875 0 L 54.796875 0 L 54.796875 -17.855469 C 54.796875 -27.203125 50.125 -32.722656 41.230469 -32.722656 C 36.8125 -32.722656 32.851562 -31.101562 30.257812 -26.296875 C 28.308594 -31.035156 24.347656 -32.722656 20.191406 -32.722656 C 16.816406 -32.722656 13.050781 -31.488281 11.234375 -27.917969 L 10.777344 -32.074219 L 4.546875 -32.074219 Z M 4.546875 0" transform="translate(113.233 340.826)"/></g></g></g><g fill="#FFF"><g><g><path d="M 19.023438 0.714844 C 29.152344 0.714844 35.644531 -6.429688 35.644531 -15.972656 C 35.644531 -25.320312 28.894531 -32.660156 19.023438 -32.660156 C 9.089844 -32.660156 2.53125 -25.320312 2.53125 -15.972656 C 2.53125 -6.429688 8.960938 0.714844 19.023438 0.714844 Z M 19.023438 -5.519531 C 12.984375 -5.519531 9.21875 -10.257812 9.21875 -15.972656 C 9.21875 -21.621094 12.984375 -26.492188 19.023438 -26.492188 C 24.933594 -26.492188 28.894531 -21.621094 28.894531 -15.972656 C 28.894531 -10.257812 25.191406 -5.519531 19.023438 -5.519531 Z M 19.023438 -5.519531" transform="translate(172.117 340.826)"/></g></g></g><g fill="#FFF"><g><g><path d="M 4.546875 0 L 11.234375 0 L 11.234375 -17.335938 C 11.234375 -23.242188 15.257812 -26.101562 19.867188 -26.101562 C 22.398438 -26.101562 23.894531 -25.453125 25.515625 -24.152344 L 28.566406 -29.996094 C 26.75 -31.621094 23.761719 -32.722656 20.648438 -32.722656 C 17.207031 -32.722656 13.570312 -31.878906 11.234375 -27.789062 L 10.777344 -32.074219 L 4.546875 -32.074219 Z M 4.546875 0" transform="translate(210.29 340.826)"/></g></g></g><g fill="#FFF"><g><g><path d="M 19.023438 0.84375 C 22.917969 0.84375 27.984375 -1.039062 30.0625 -5.195312 L 30.386719 0 L 36.75 0 L 36.75 -32.074219 L 30.257812 -32.074219 L 30.0625 -26.945312 C 28.046875 -30.582031 23.761719 -32.722656 19.152344 -32.722656 C 10 -32.722656 2.597656 -26.75 2.597656 -16.035156 C 2.597656 -5.128906 9.675781 0.84375 19.023438 0.84375 Z M 19.671875 -5.390625 C 13.960938 -5.390625 9.285156 -9.480469 9.285156 -16.035156 C 9.285156 -22.53125 13.960938 -26.621094 19.671875 -26.621094 C 26.621094 -26.621094 30.0625 -21.296875 30.0625 -16.035156 C 30.0625 -10.714844 26.621094 -5.390625 19.671875 -5.390625 Z M 19.671875 -5.390625" transform="translate(238.856 340.826)"/></g></g></g><g fill="#FFF"><g><g><path d="M 19.804688 19.347656 C 28.375 19.347656 36.945312 15 36.945312 6.296875 C 36.945312 2.46875 35.0625 -1.882812 28.503906 -4.15625 C 34.214844 -6.429688 37.007812 -10.90625 37.007812 -16.621094 C 37.007812 -20.582031 35.773438 -23.4375 33.113281 -26.554688 L 36.945312 -31.035156 L 32.074219 -34.800781 L 28.566406 -30.515625 C 26.359375 -32.074219 22.59375 -32.722656 19.933594 -32.722656 C 11.296875 -32.722656 2.597656 -27.335938 2.597656 -16.621094 C 2.597656 -6.621094 9.542969 -0.648438 19.933594 -0.648438 C 25.90625 -0.648438 29.996094 1.816406 29.996094 6.296875 C 29.996094 10.777344 24.738281 12.855469 19.804688 12.855469 C 14.480469 12.855469 9.414062 10.0625 9.609375 5.128906 L 2.921875 5.128906 C 2.597656 14.023438 9.414062 19.347656 19.804688 19.347656 Z M 19.933594 -6.816406 C 14.152344 -6.816406 9.347656 -10.257812 9.347656 -16.621094 C 9.347656 -23.308594 14.480469 -26.492188 19.933594 -26.492188 C 25.453125 -26.492188 30.320312 -22.917969 30.320312 -16.621094 C 30.320312 -10.84375 25.90625 -6.816406 19.933594 -6.816406 Z M 19.933594 -6.816406" transform="translate(280.147 340.826)"/></g></g></g><g fill="#FFF"><g><g><path d="M 19.867188 0.910156 C 24.800781 0.910156 30.320312 -0.84375 33.632812 -4.546875 L 29.28125 -8.765625 C 27.269531 -6.492188 23.308594 -5.324219 19.996094 -5.324219 C 14.089844 -5.324219 10.128906 -8.441406 9.542969 -13.375 L 35.515625 -13.375 C 35.582031 -14.347656 35.644531 -15.324219 35.644531 -16.230469 C 35.644531 -27.269531 28.957031 -32.722656 19.414062 -32.722656 C 9.414062 -32.722656 2.597656 -25.777344 2.597656 -16.035156 C 2.597656 -5.777344 9.347656 0.910156 19.867188 0.910156 Z M 9.675781 -19.023438 C 10.714844 -24.152344 14.671875 -26.75 19.609375 -26.75 C 25.0625 -26.75 28.632812 -24.152344 29.085938 -19.023438 Z M 9.675781 -19.023438" transform="translate(320.009 340.826)"/></g></g></g></svg>